<?xml version="1.0" encoding="utf-8"?>
<!-- Generator: Adobe Illustrator 19.1.0, SVG Export Plug-In . SVG Version: 6.00 Build 0)  -->
<svg version="1.1" id="Layer_1" xmlns="http://www.w3.org/2000/svg" xmlns:xlink="http://www.w3.org/1999/xlink" x="0px" y="0px"
	 viewBox="0 0 92.3 30.3" style="enable-background:new 0 0 92.3 30.3;" xml:space="preserve">
<style type="text/css">
	.st0{fill:#E5E4E4;}
	.st1{fill:#006241;}
	.st2{fill:#FFFFFF;}
	.st3{fill:#FFC300;}
	.st4{opacity:0.5;fill:#006241;}
	.st5{fill:none;stroke:#FFFFFF;stroke-miterlimit:10;}
	.st6{fill:#FFFFFF;stroke:#E9EAEA;stroke-miterlimit:10;}
	.st7{fill:none;stroke:#FFFFFF;stroke-width:2;stroke-linecap:round;stroke-miterlimit:10;}
	.st8{fill:#DDDEDF;}
	.st9{fill:#CCCECF;}
	.st10{fill:#FFFFFF;stroke:#E0E1E1;stroke-width:0.5;stroke-linecap:round;stroke-linejoin:round;stroke-miterlimit:10;}
	.st11{fill:#FFFFFF;stroke:#C8CACA;stroke-miterlimit:10;}
	.st12{fill:none;stroke:#9B9D9F;stroke-miterlimit:10;}
	.st13{fill:#FFFFFF;stroke:#CBCDCE;stroke-miterlimit:10;}
	.st14{fill:#FCC20E;}
	.st15{fill:#E0E1E1;}
	.st16{fill:#006240;}
	.st17{fill:#FBC213;}
	.st18{clip-path:url(#SVGID_6_);}
	.st19{fill:none;}
	.st20{fill:#FFC609;}
	.st21{clip-path:url(#SVGID_8_);fill:#FFFFFF;}
	.st22{fill:#2D6244;}
	.st23{clip-path:url(#SVGID_10_);}
	.st24{fill:none;stroke:#CBCDCE;stroke-miterlimit:10;}
	.st25{clip-path:url(#SVGID_12_);}
	.st26{opacity:0.75;fill:url(#SVGID_13_);}
	.st27{fill:none;stroke:#008F46;stroke-width:0.5;stroke-miterlimit:10;}
	.st28{fill:none;stroke:#FFFFFF;stroke-width:0.5;stroke-miterlimit:10;}
	.st29{fill:#495E5E;}
	.st30{opacity:0.45;fill:url(#SVGID_16_);}
	.st31{fill:#FFC609;stroke:#CBCDCE;stroke-miterlimit:10;}
	.st32{fill:#CBCDCE;}
	.st33{fill:#6A6D6F;}
	.st34{opacity:0.45;fill:url(#SVGID_19_);}
	.st35{fill:none;stroke:#9E9FA1;stroke-miterlimit:10;}
	.st36{clip-path:url(#SVGID_23_);}
	.st37{clip-path:url(#SVGID_25_);}
	.st38{clip-path:url(#SVGID_27_);}
	.st39{clip-path:url(#SVGID_31_);}
	.st40{fill:#EA4136;}
	.st41{clip-path:url(#SVGID_33_);fill:url(#SVGID_34_);}
	.st42{fill:#F28F1E;}
	.st43{fill:#CBCDCE;stroke:#FFFFFF;stroke-miterlimit:10;}
	.st44{fill:#ECEDED;}
	.st45{clip-path:url(#SVGID_40_);}
	.st46{fill:#FFC600;}
	.st47{opacity:0.2;fill:#2D6244;}
	.st48{clip-path:url(#SVGID_46_);}
	.st49{clip-path:url(#SVGID_48_);fill:#FFFFFF;}
	.st50{clip-path:url(#SVGID_50_);}
	.st51{clip-path:url(#SVGID_52_);}
	.st52{opacity:0.75;fill:url(#SVGID_53_);}
	.st53{opacity:0.45;fill:url(#SVGID_56_);}
	.st54{opacity:0.45;fill:url(#SVGID_59_);}
	.st55{clip-path:url(#SVGID_63_);}
	.st56{clip-path:url(#SVGID_65_);}
	.st57{clip-path:url(#SVGID_67_);}
	.st58{clip-path:url(#SVGID_71_);}
	.st59{clip-path:url(#SVGID_73_);fill:url(#SVGID_74_);}
	.st60{clip-path:url(#SVGID_80_);}
	.st61{opacity:0.1;fill:url(#SVGID_81_);}
	.st62{fill:#4C4C4C;}
	.st63{opacity:0.2;fill:#006241;}
</style>
<g>
	<polygon class="st2" points="66.6,6.3 66.6,6.3 66.6,6.3 	"/>
	<path class="st2" d="M2.7,25.6v-1c2.4,0,2.8-0.8,2.8-4.2V8.5c0-3.3-0.4-4.2-2.8-4.2v-1h6.6C13.1,3.3,20,3.1,20,8.5
		c0,3.9-3.3,4.9-6.5,5.4V14c3.4,0.1,7.8,1.6,7.8,5.6c0,4.7-5.1,6-8.9,6H2.7L2.7,25.6z M10.3,13.4c3.3,0,6.5-0.6,6.5-4.7
		c0-3.2-2.7-4.4-5.5-4.4c-2.4,0-2.7,1-2.7,3.1v5.9H10.3L10.3,13.4z M8.5,21.6c0,2.1,0.5,3,2.9,3c3.3,0,6.3-1.2,6.3-4.9
		c0-4.6-3.8-5.4-7.6-5.4H8.5V21.6"/>
	<path class="st2" d="M31.9,23.5C30.6,24.7,29,26,27.1,26c-1.2,0-2.6-0.5-3.3-1.6c-0.8-1.2-0.8-2.6-0.8-4.1v-5.4
		c-0.1-1.6-0.1-2.2-2-2.2V12l4.7-1.8v10.9c0,1.6,0.6,3.2,2.5,3.2c1.5,0,2.7-1.2,3.7-2.2v-7.3c-0.1-1.6-0.1-2.2-2-2.2V12l4.7-1.8
		v11.3c0,2.9,0,3,2.1,3.3v0.9h-4.8V23.5"/>
	<path class="st2" d="M59.9,18.4c0-4,2.6-8,6.9-8c4.2,0,6.8,4.1,6.8,8c0,3.9-2.9,7.6-6.9,7.6C62.7,26,59.9,22.2,59.9,18.4L59.9,18.4
		z M70.5,17.8c0-2.2-0.7-6.4-3.7-6.4c-3.1,0-3.8,4-3.8,6.4c0,2.2,0.7,7.2,3.7,7.2C69.8,25,70.5,20.2,70.5,17.8"/>
	<path class="st2" d="M78.2,21.5c0,2.9,0,3,2,3.3v0.9h-6.8v-0.9c2.1-0.2,2.1-0.4,2.1-3.3v-6.5c-0.1-1.6-0.1-2.2-2-2.2V12l4.7-1.8
		v2.6c1.2-1.2,3.1-2.4,4.8-2.4c1.1,0,2.1,0.4,2.9,1.2c1,1.1,1,2.5,1,4v5.9c0,2.9,0,3,2,3.3v0.9h-6.8v-0.9c2.1-0.2,2.1-0.4,2.1-3.3
		v-5.3c0-1.8-0.1-4.1-2.5-4.1c-1.3,0-2.6,1.1-3.5,2V21.5"/>
	<g>
		<path class="st2" d="M52.7,11.7v9.9c0,2.2,0.4,4.4,3.1,4.4c1.9,0,3.4-1.2,4.5-2.5l-0.5-0.6c-0.8,0.8-1.5,1.5-2.7,1.5
			c-1.9,0-1.7-2-1.7-3.4v-9.2h4.3v-1h-4.3V9.5c-1.3,0.6-2.5,1.4-3.7,2.3H52.7z"/>
		<polygon class="st2" points="66.6,6.3 66.6,6.3 66.6,6.3 		"/>
	</g>
	<path class="st2" d="M45.6,22.6c0.2,0.3,1,1,1,1.5c0,0.7-1,0.6-1.5,0.7v0.9h7.1v-0.9c-1.7,0-3-1.9-4-3l-2.8-3.5
		c-0.5,0.8-1,1.6-1.5,2.4L45.6,22.6z"/>
	<g>
		<path class="st2" d="M42.4,14.4c-0.4-0.5-1.2-1.3-1.2-1.9c0-0.8,1.1-0.8,1.8-0.8v-0.9h-7.3v0.9c1.2,0,2.3,1.5,3,2.3l2.7,3.4
			c0.5-0.8,1.1-1.5,1.7-2.2L42.4,14.4z"/>
	</g>
	<path class="st3" d="M66.6,6.3C56.4,5.9,44.6,10.6,39.5,22c-1.2,2.7-1.5,3.7-1.5,3.7l3.3,0c0.3-1.1,0.7-2.2,1.2-3.3
		C47,12.1,56.8,6.1,66.6,6.3L66.6,6.3L66.6,6.3z"/>
</g>
</svg>
