<svg xmlns="http://www.w3.org/2000/svg" width="80" height="80" viewBox="0 0 80 80">
    <path fill="#125B4A" fill-rule="evenodd" d="M79.186 23.81c.528.547.822 1.279.82 2.041a2.983 2.983 0 0 1-2.877 2.876 2.915 2.915 0 0 1-2.032-.82 2.506 2.506 0 0 1-.35-.451 2.626 2.626 0 0 1-.272-.5 2.308 2.308 0 0 1-.164-.532c-.04-.2-.059-.403-.058-.606a2.868 2.868 0 0 1 2.86-2.876h.016c.19-.001.38.015.566.049.181.041.36.095.532.164.174.076.342.166.5.27.16.117.308.249.442.393l.017-.008zm-13.109 6.973a2.875 2.875 0 0 1 .59-3.212c.238-.241.514-.441.82-.59a2.876 2.876 0 1 1-1.45 3.802h.04zm-3.13 1.491c.071.176.13.356.172.541.034.186.05.376.048.565a2.898 2.898 0 0 1-1.777 2.655 2.452 2.452 0 0 1-.54.172 2.681 2.681 0 0 1-1.115 0 2.435 2.435 0 0 1-.54-.172 2.515 2.515 0 0 1-.492-.262 2.608 2.608 0 0 1-.443-.361 2.532 2.532 0 0 1-.352-.434 2.656 2.656 0 0 1-.27-.5 2.41 2.41 0 0 1-.165-.532 2.674 2.674 0 0 1-.058-.557c0-.19.016-.379.05-.566a3.095 3.095 0 0 1 .434-1.033c.107-.157.228-.305.361-.442a2.89 2.89 0 0 1 2.031-.819c.19-.001.38.015.566.049.182.041.36.095.533.164.174.076.341.166.5.27.154.105.3.223.434.353.133.136.254.284.36.442.102.148.19.304.263.467zm-5.94-29.398a2.867 2.867 0 0 1-2.86 2.876h-.017a2.955 2.955 0 0 1-1.09-.221 2.78 2.78 0 0 1-.5-.271 2.525 2.525 0 0 1-.433-.352 2.904 2.904 0 0 1-.819-2.032A2.981 2.981 0 0 1 54.164 0a2.92 2.92 0 0 1 2.04.819c.13.135.248.28.351.435.105.159.194.326.271.499.068.173.124.351.164.533.024.196.03.393.016.59zm-7.817 11.02a2.875 2.875 0 1 1 3.802-1.45c-.15.304-.349.581-.59.819a2.873 2.873 0 0 1-3.195.631h-.017zm.073 4.687c.07.173.123.351.164.532.034.187.051.376.05.566a2.893 2.893 0 0 1-.82 2.032 3.196 3.196 0 0 1-.443.36 3.043 3.043 0 0 1-1.032.434 3.06 3.06 0 0 1-.565.05 2.545 2.545 0 0 1-.557-.058 2.316 2.316 0 0 1-.533-.164 2.702 2.702 0 0 1-.499-.27 2.578 2.578 0 0 1-.435-.352 2.594 2.594 0 0 1-.36-.443 2.52 2.52 0 0 1-.263-.491 2.72 2.72 0 0 1 0-2.196 2.898 2.898 0 0 1 3.204-1.729c.185.043.366.101.541.172.171.073.336.16.492.262.157.107.305.228.442.361a3.12 3.12 0 0 1 .623.934h-.009zm17.78-2.761a2.885 2.885 0 0 1-2.818-3.45c.04-.182.095-.359.163-.532a2.9 2.9 0 0 1 2.655-1.779 2.877 2.877 0 0 1 2.033 4.916 2.93 2.93 0 0 1-2.033.845zm-4.482 5.694a2.875 2.875 0 1 1 0-4.097 2.876 2.876 0 0 1 .01 4.064l-.01.033zm-11.364 5.047a3.066 3.066 0 0 1 0-1.13 3.53 3.53 0 0 1 .164-.533 3.49 3.49 0 0 1 .27-.5 2.894 2.894 0 0 1 1.311-1.081c.176-.072.356-.129.541-.173.186-.033.376-.049.565-.048.188-.002.374.017.558.057.186.034.368.092.54.172.174.069.338.157.492.262.328.212.607.492.82.819.105.154.193.319.261.492.078.173.136.354.173.541a2.91 2.91 0 0 1-1.188 2.95c-.162.1-.329.19-.5.27a2.907 2.907 0 0 1-.54.155c-.184.04-.37.059-.558.058a3.158 3.158 0 0 1-.566-.049 3.696 3.696 0 0 1-.54-.172 3.13 3.13 0 0 1-.492-.262 2.807 2.807 0 0 1-.819-.82 3.09 3.09 0 0 1-.263-.491 3.188 3.188 0 0 1-.22-.55l-.009.033zM12.335 63.434l17.42-36.871a.918.918 0 0 1 1.467-.262l4.514 4.449c.554.528.627 1.385.172 1.999L13.106 63.885a.446.446 0 0 1-.77-.451zm23.827 5.162a5.916 5.916 0 0 1-8.357.057l-1.22-1.205 10.814-5.284a5.915 5.915 0 0 1-1.237 6.432zM4.56 65.425a2.681 2.681 0 0 0-3.79.028 2.681 2.681 0 0 0 .03 3.79l9.635 9.504a2.679 2.679 0 1 0 3.76-3.81l-.967-.95 8.26-4.048 2.556 2.524c4.426 4.366 11.554 4.318 15.921-.109a11.257 11.257 0 0 0 2.243-12.542l17.895-8.751 1.96 1.934a2.679 2.679 0 0 0 3.76-3.81l-36.2-35.731a2.68 2.68 0 1 0-3.76 3.81l1.638 1.638L5.183 66.039l-.623-.614z"/>
</svg>
