<?xml version="1.0" encoding="UTF-8" standalone="no"?>
<svg width="56px" height="46px" viewBox="0 0 56 46" version="1.1" xmlns="http://www.w3.org/2000/svg" xmlns:xlink="http://www.w3.org/1999/xlink">
    <!-- Generator: sketchtool 3.8.3 (29802) - http://www.bohemiancoding.com/sketch -->
    <title>40D73D4E-4358-49E3-9E38-6E9A9804DECF</title>
    <desc>Created with sketchtool.</desc>
    <defs>
        <linearGradient x1="133.1843%" y1="50%" x2="0%" y2="50%" id="linearGradient-1">
            <stop stop-color="#4776E6" offset="0%"></stop>
            <stop stop-color="#8E54E9" offset="100%"></stop>
        </linearGradient>
    </defs>
    <g id="Page-1" stroke="none" stroke-width="1" fill="none" fill-rule="evenodd">
        <g id="Company-Dashboard---My-Cleints-Copy-2" transform="translate(-732.000000, -301.000000)" fill="url(#linearGradient-1)">
            <g id="Group-3" transform="translate(628.000000, 207.000000)">
                <g id="Nexus-Icon" transform="translate(104.000000, 94.900000)">
                    <path d="M46.3994844,17.2685967 L46.3945156,17.2685967 C45.54732,17.2685967 44.8199989,17.7584216 44.4877044,18.4619772 L42.1976678,23.4910072 L36.7200889,10.7610101 C36.4070489,10.0132552 35.6555044,9.4852858 34.77539,9.4852858 C33.8685678,9.4852858 33.09839,10.0465561 32.8046044,10.8318501 L26.4549856,28.8403306 L17.2600567,1.50701368 C17.0165811,0.638770364 16.2041678,-1.42108547e-14 15.2364767,-1.42108547e-14 C14.2948722,-1.42108547e-14 13.4986078,0.60365313 13.2321511,1.43617375 L6.66079556,20.334089 L0,20.334089 L0,26.6612457 C0,26.6612457 9.89492111,26.6630621 9.91852333,26.6630621 C10.8874567,26.6630621 11.7004911,26.0224753 11.9427244,25.1530211 L14.69052,17.0591043 L13.9128889,11.0704051 L24.1742656,43.0743139 C24.45066,43.8910924 25.2376078,44.4808197 26.1680322,44.4808197 C27.0878978,44.4808197 27.8673922,43.9032017 28.1518611,43.1009546 L28.1524822,43.1009546 L34.6890556,24.9023567 L33.2356556,19.0262748 L40.1504856,34.98403 C40.4672522,35.7227028 41.2156911,36.2421957 42.0883522,36.2421957 C42.9603922,36.2421957 43.70821,35.7233083 44.0255978,34.9858464 L48.8938667,24.37802 L47.8982256,23.5872768 L55.9,23.5872768 L55.9,17.2601201 L46.3994844,17.2685967 L46.3994844,17.2685967 Z" id="Shape"></path>
                </g>
            </g>
        </g>
    </g>
</svg>