<svg xmlns="http://www.w3.org/2000/svg" width="94" height="90" viewBox="0 0 94 90">
    <path fill="#EB6E51" fill-rule="nonzero" d="M8 0C3.603 0 0 3.603 0 8v12c0 2.379 1.054 4.53 2.719 6A7.954 7.954 0 0 0 0 31.998v12c0 2.379 1.054 4.53 2.719 6a7.954 7.954 0 0 0-2.719 6v11.999c0 4.397 3.603 8 8 8h51.748a14.846 14.846 0 0 1-1.437-4H8c-2.25 0-4-1.75-4-4v-12c0-2.25 1.75-4 4-4h63.998c1.607 0 2.92.92 3.562 2.25a14.89 14.89 0 0 1 4.406 1.469 7.94 7.94 0 0 0-2.687-5.719 7.997 7.997 0 0 0 2.719-6V32a7.953 7.953 0 0 0-2.72-6 7.997 7.997 0 0 0 2.72-6V8c0-4.396-3.603-7.999-8-7.999H8zm0 4h63.998c2.25 0 4 1.75 4 4v12c0 2.25-1.75 4-4 4H8c-2.25 0-4-1.75-4-4V8c0-2.25 1.75-4 4-4zm12 4c-3.29 0-6 2.71-6 6s2.71 6 6 6 6-2.71 6-6-2.71-6-6-6zm0 4c1.128 0 2 .871 2 2 0 1.128-.872 2-2 2-1.129 0-2-.872-2-2 0-1.129.871-2 2-2zm19.999 0a2 2 0 1 0 0 4h22a2 2 0 1 0 0-4h-22zm-32 16h63.999c2.25 0 4 1.748 4 3.999v12c0 2.25-1.75 4-4 4H8c-2.25 0-4-1.75-4-4v-12c0-2.25 1.75-4 4-4zm12 3.999c-3.29 0-6 2.71-6 6s2.71 6 6 6 6-2.71 6-6-2.71-6-6-6zm0 4c1.129 0 2 .872 2 2 0 1.128-.871 2-2 2-1.128 0-2-.872-2-2 0-1.128.872-2 2-2zm20 0a2 2 0 1 0 0 4h22a2 2 0 1 0 0-4h-22zm-20 20c-3.29 0-6 2.709-6 5.999 0 3.29 2.71 6 6 6s6-2.71 6-6-2.71-6-6-6zm52.999 0c-7.156 0-13 5.843-13 12.999 0 7.156 5.844 13 13 13a12.87 12.87 0 0 0 7.624-2.5l9.906 9.905a2.03 2.03 0 0 0 2.875 0 2.03 2.03 0 0 0 0-2.874l-9.906-9.906a12.87 12.87 0 0 0 2.5-7.625c0-7.156-5.844-13-13-13zm-52.999 4c1.129 0 2 .87 2 1.999 0 1.128-.871 2-2 2-1.128 0-2-.872-2-2 0-1.128.872-2 2-2zm20 0a2 2 0 1 0 0 3.999h18.874a14.833 14.833 0 0 1 2.156-4H40zm32.999 0c4.994 0 9 4.005 9 8.999 0 4.994-4.006 9-9 9a8.97 8.97 0 0 1-9-9c0-4.994 4.006-9 9-9z"/>
</svg>
