<?xml version="1.0" encoding="UTF-8" standalone="no"?>
<svg width="56px" height="57px" viewBox="0 0 56 57" version="1.1" xmlns="http://www.w3.org/2000/svg" xmlns:xlink="http://www.w3.org/1999/xlink">
    <!-- Generator: sketchtool 3.8.3 (29802) - http://www.bohemiancoding.com/sketch -->
    <title>24DABAEF-ACF7-4FA3-9C7A-F9D29DD34765</title>
    <desc>Created with sketchtool.</desc>
    <defs>
        <linearGradient x1="135.852786%" y1="50%" x2="0%" y2="50%" id="linearGradient-1">
            <stop stop-color="#26ACED" offset="0%"></stop>
            <stop stop-color="#1173D5" offset="100%"></stop>
        </linearGradient>
    </defs>
    <g id="Page-1" stroke="none" stroke-width="1" fill="none" fill-rule="evenodd">
        <g id="Company-Dashboard---My-Cleints-Copy-2" transform="translate(-439.000000, -296.000000)" fill="url(#linearGradient-1)">
            <g id="Group-2" transform="translate(335.000000, 207.000000)">
                <g id="Platform-Icon" transform="translate(104.000000, 89.000000)">
                    <path d="M27.9493013,0.7 C12.513215,0.7 0,13.213215 0,28.6493012 C0,44.0860862 12.513215,56.5986025 27.9493013,56.5986025 C43.386785,56.5986025 55.9,44.0860862 55.9,28.6493012 C55.9,13.213215 43.386785,0.7 27.9493013,0.7 L27.9493013,0.7 Z M27.9493012,52.7547787 C14.6576787,52.7547787 3.843125,41.9416225 3.843125,28.6493013 C3.843125,15.3576788 14.6576787,4.543125 27.9493012,4.543125 C41.2423212,4.543125 52.0554775,15.3576788 52.0554775,28.6493013 C52.0554775,41.9416225 41.2423212,52.7547787 27.9493012,52.7547787 L27.9493012,52.7547787 Z" id="Shape"></path>
                    <path d="M29.4828246,25.7217717 C29.2075171,25.6386204 28.9224271,25.5813229 28.6219646,25.5813229 C26.9673246,25.5813229 25.6208333,26.9278142 25.6208333,28.5831529 C25.6208333,30.2391904 26.9673246,31.5849829 28.6219646,31.5849829 C30.2780021,31.5849829 31.6244933,30.2391904 31.6244933,28.5831529 C31.6244933,28.2582342 31.5595096,27.9514829 31.4644796,27.6587067 L39.9990121,17.7776829 L39.2247971,17.0041667 L29.4828246,25.7217717 L29.4828246,25.7217717 Z" id="Shape"></path>
                    <rect id="Rectangle-path" transform="translate(44.485831, 37.671118) rotate(210.000728) translate(-44.485831, -37.671118) " x="42.0839311" y="36.7096594" width="4.80380056" height="1.92291769"></rect>
                    <rect id="Rectangle-path" x="44.2541667" y="26.3208333" width="4.804605" height="1.9215625"></rect>
                    <rect id="Rectangle-path" transform="translate(44.485640, 19.039322) rotate(59.948119) translate(-44.485640, -19.039322) " x="43.524129" y="16.6372919" width="1.92302153" height="4.80405997"></rect>
                    <rect id="Rectangle-path" transform="translate(36.971200, 10.248109) rotate(210.013517) translate(-36.971200, -10.248109) " x="36.0100776" y="7.84617622" width="1.92224477" height="4.80386506"></rect>
                    <rect id="Rectangle-path" x="25.6208333" y="5.35833333" width="1.9215625" height="4.80530375"></rect>
                    <rect id="Rectangle-path" transform="translate(18.337867, 10.248109) rotate(-30.013517) translate(-18.337867, -10.248109) " x="17.3767442" y="7.84617622" width="1.92224477" height="4.80386506"></rect>
                    <rect id="Rectangle-path" transform="translate(11.877149, 19.037180) rotate(30.000728) translate(-11.877149, -19.037180) " x="9.47524842" y="18.0764197" width="4.80380056" height="1.92152023"></rect>
                    <rect id="Rectangle-path" x="6.9875" y="26.3208333" width="4.80530375" height="1.9215625"></rect>
                    <rect id="Rectangle-path" transform="translate(11.877578, 37.671375) rotate(239.986483) translate(-11.877578, -37.671375) " x="10.9164556" y="35.2690928" width="1.92224477" height="4.8045638"></rect>
                    <path d="M31.6084221,37.9666667 L21.9964171,37.9666667 C20.1426333,37.9666667 18.6333333,39.4752679 18.6333333,41.3297504 L18.6333333,43.5713404 C18.6333333,45.4244254 20.1426333,46.9337254 21.9964171,46.9337254 L31.6084221,46.9337254 C33.4629046,46.9337254 34.9715058,45.4251242 34.9715058,43.5713404 L34.9715058,41.3297504 C34.9715058,39.4752679 33.4629046,37.9666667 31.6084221,37.9666667 L31.6084221,37.9666667 Z" id="Shape"></path>
                </g>
            </g>
        </g>
    </g>
</svg>