<svg id="Layer_1" data-name="Layer 1" xmlns="http://www.w3.org/2000/svg" xmlns:xlink="http://www.w3.org/1999/xlink" viewBox="0 0 100 100"><defs><style>.cls-1{fill:url(#New_Gradient_Swatch);}.cls-2{fill:url(#New_Gradient_Swatch-2);}.cls-3{fill:url(#New_Gradient_Swatch-3);}.cls-4{fill:url(#New_Gradient_Swatch-4);}.cls-5{fill:url(#New_Gradient_Swatch-5);}.cls-6{fill:url(#New_Gradient_Swatch-6);}.cls-7{fill:url(#New_Gradient_Swatch-7);}.cls-8{fill:url(#New_Gradient_Swatch-8);}</style><linearGradient id="New_Gradient_Swatch" y1="50" x2="100" y2="50" gradientUnits="userSpaceOnUse"><stop offset="0" stop-color="#1d73d4"/><stop offset="0.51" stop-color="#2388dc"/><stop offset="1" stop-color="#289ae5"/></linearGradient><linearGradient id="New_Gradient_Swatch-2" x1="77.86" y1="64.4" x2="79.89" y2="64.4" xlink:href="#New_Gradient_Swatch"/><linearGradient id="New_Gradient_Swatch-3" x1="69.29" y1="60.26" x2="78.66" y2="60.26" xlink:href="#New_Gradient_Swatch"/><linearGradient id="New_Gradient_Swatch-4" x1="36.12" y1="64.63" x2="43" y2="64.63" xlink:href="#New_Gradient_Swatch"/><linearGradient id="New_Gradient_Swatch-5" x1="20.39" y1="37.5" x2="23.63" y2="37.5" xlink:href="#New_Gradient_Swatch"/><linearGradient id="New_Gradient_Swatch-6" x1="22.81" y1="39.93" x2="24.84" y2="39.93" xlink:href="#New_Gradient_Swatch"/><linearGradient id="New_Gradient_Swatch-7" x1="60.66" y1="48.43" x2="62.69" y2="48.43" xlink:href="#New_Gradient_Swatch"/><linearGradient id="New_Gradient_Swatch-8" x1="56.76" y1="47.21" x2="60.49" y2="47.21" xlink:href="#New_Gradient_Swatch"/></defs><title>Artboard 1</title><path class="cls-1" d="M99.43,23.54h0a2.88,2.88,0,0,0-1.11-1.39,3,3,0,0,0-3.07-.07,2.83,2.83,0,0,0-1.08,1.14L92.94,25.5a10.52,10.52,0,0,1-4.67,3.61l-1,.39A4.14,4.14,0,0,0,85,31.65a6.87,6.87,0,0,1-2.27,2.78l-.4.28a8.83,8.83,0,0,0-1.62,1.5l-2,2.36a1.49,1.49,0,0,1-.5.39,1.45,1.45,0,0,1-1.66-.32,1.43,1.43,0,0,1-.4-1l0-1.63a3.3,3.3,0,0,0-2.79-3.22,6,6,0,0,0-5.23,1.73l-.55.56a1.76,1.76,0,0,1-2,.32,1.71,1.71,0,0,1-.63-.57,1.69,1.69,0,0,1-.29-.95,1.72,1.72,0,0,1,.15-.7,1.7,1.7,0,0,1,.46-.61l.74-1a2.73,2.73,0,0,0,.23-1.09,2.7,2.7,0,0,0,0-.37l0-.22a2.71,2.71,0,0,0-1.8-2L60.12,26.5a36.73,36.73,0,0,0-10.67-1.91,34.82,34.82,0,0,1-7.29-1l-.91-.22a36.76,36.76,0,0,0-5-.87L17.93,20.65a34.91,34.91,0,0,1-5.13-.91L4,17.48l-.83,9a11.87,11.87,0,0,1-1.29,4.39A13.72,13.72,0,0,0,.37,36.33l-.32,5Q0,42,0,42.7A20.93,20.93,0,0,0,11.15,61.21L25.3,68.68a20.29,20.29,0,0,0,2.47,1.1l7.14,2.65a18.85,18.85,0,0,1,8.16,5.89l2.35,2.93A3.32,3.32,0,0,0,48,82.52a3.55,3.55,0,0,0,.86-.11,3.36,3.36,0,0,0,2.49-3.22V77a2.06,2.06,0,0,1,1.93-2l5.08-.33a15.74,15.74,0,0,0,5.65-1.44,14.54,14.54,0,0,1,6.6-1.28l1.39.08a5.49,5.49,0,0,1,4.19,2.34L80.19,80a2.84,2.84,0,0,0,1,.89,2.9,2.9,0,0,0,2.9-.15,2.78,2.78,0,0,0,1.11-1.39,10.43,10.43,0,0,0,0-7.48l-.67-1.72a8.26,8.26,0,0,1,.89-7.67l2.17-3.17a11.11,11.11,0,0,0,2-6.34,10.27,10.27,0,0,0-.07-1.23V51.6a8.89,8.89,0,0,1-.06-1,9.25,9.25,0,0,1,.4-2.69l.77-2.54a10.67,10.67,0,0,1,4.16-5.69,5.49,5.49,0,0,0,2.38-4.53c0-.09,0-.47,0-.47v-.09s0-.11,0-.15a3.32,3.32,0,0,1,.79-2.12l0,0A8.58,8.58,0,0,0,100,26.61,8.68,8.68,0,0,0,99.43,23.54ZM92.94,34.85h0v.26a1.34,1.34,0,0,1-.58,1.1,14.83,14.83,0,0,0-5.79,7.91l-.76,2.54a13.35,13.35,0,0,0-.58,3.89A11.12,11.12,0,0,0,85.32,52l0,.2a7.25,7.25,0,0,1,.05.83,7,7,0,0,1-1.23,4L82,60.15a12.41,12.41,0,0,0-1.33,11.53l.67,1.72a6.13,6.13,0,0,1,.38,1.48l-2-2.91a9.67,9.67,0,0,0-7.38-4.11l-1.41-.08a18.43,18.43,0,0,0-8.56,1.67,11.64,11.64,0,0,1-4.16,1.06l-5.08.33a6.21,6.21,0,0,0-5.82,6.06l-.94-1.17a23,23,0,0,0-10-7.19l-7.14-2.65a16.47,16.47,0,0,1-2-.88L13.09,57.53A16.78,16.78,0,0,1,4.16,42.7c0-.35,0-.71,0-1.07l.32-5a9.59,9.59,0,0,1,1.06-3.83,16,16,0,0,0,1.74-5.93l.38-4.13,4.07,1a39.26,39.26,0,0,0,5.74,1L35.8,26.65a32.57,32.57,0,0,1,4.46.77l.9.22a39,39,0,0,0,8.16,1.11,32.52,32.52,0,0,1,9.44,1.69l2.37.84-.12.25a5.86,5.86,0,0,0,5.31,8.26h0A5.6,5.6,0,0,0,70.57,38l.55-.56a1.8,1.8,0,0,1,.91-.51v.79a5.6,5.6,0,0,0,5.61,5.51,5.74,5.74,0,0,0,2.32-.5,5.65,5.65,0,0,0,2-1.5l2-2.36a4.55,4.55,0,0,1,.84-.78l.4-.28a11,11,0,0,0,3.64-4.45l1-.39.72-.3L92,31.89a14.64,14.64,0,0,0,2.2-1.61,7.39,7.39,0,0,0-1.26,4.12C92.92,34.52,92.93,34.71,92.94,34.85Z"/><circle class="cls-2" cx="78.88" cy="64.4" r="1.01"/><path class="cls-3" d="M78.66,59.49a1,1,0,0,0-1-1,1,1,0,0,0-.27.05,1,1,0,0,0,.05-.27,1,1,0,1,0-2,0,1,1,0,0,0,.05.27.7.7,0,0,0-.54,0,1,1,0,0,0,.05-.27,1,1,0,1,0-2,0,1,1,0,0,0,.07.36.73.73,0,0,0-.74.25,1,1,0,0,0-.78-.39,1,1,0,0,0-1,.94,1,1,0,0,0-.54,0,1,1,0,0,0-.61,1.3,1,1,0,0,0,1,.67h.08a1,1,0,0,0,.73,1.43l.18,0a1,1,0,0,0,1-1.1,1,1,0,0,0,.24.1l.18,0,.09,0a1,1,0,0,0-.1.25,1,1,0,0,0,.81,1.18l.18,0a1,1,0,0,0,1-.83,1,1,0,0,0-.11-.63,1,1,0,0,0,.16-.18,1,1,0,0,0,.44.11,1,1,0,0,0,1-1A1,1,0,0,0,76,60.1a1,1,0,0,0,.23-.61,1,1,0,0,0-.05-.27.69.69,0,0,0,.54,0,1,1,0,0,0-.05.27,1,1,0,0,0,2,0Z"/><path class="cls-4" d="M42.05,63.56a.84.84,0,0,0-.85.39,1,1,0,0,0-.25-.12h0a1,1,0,0,0-.25,0,1,1,0,0,0,.09-.23,1,1,0,1,0-2-.5,1,1,0,0,0,0,.39,1,1,0,0,0-.45-.15.94.94,0,0,0-.41.05,1,1,0,0,0-1.11-.43,1,1,0,0,0,.27,2l.19,0a1,1,0,0,0-.21.43,1,1,0,0,0,.81,1.18l.19,0a1,1,0,0,0,.57-.18,1,1,0,0,0,.08-.08,1,1,0,0,0,.6.37,1,1,0,0,0,.41,0,1,1,0,0,0,.57.32l.18,0a1,1,0,0,0,1-.83,1,1,0,0,0-.07-.58v-.07h0a1,1,0,0,0,.39.11H42a1,1,0,0,0,.07-2Z"/><path class="cls-5" d="M23.6,36.54a1,1,0,0,0-.73-1.23h0a1,1,0,0,0-1.23.73,1,1,0,0,0,0,.48,1,1,0,0,0-1.22.73,1,1,0,0,0,.18.85,1,1,0,0,0,.8,1.63,1,1,0,0,0,1-.76,1,1,0,0,0-.19-.85.91.91,0,0,0,.18-.84,1,1,0,0,0,1.22-.73Z"/><path class="cls-6" d="M24.08,38.94h0a1,1,0,0,0-1.23.73,1,1,0,1,0,1.23-.73Z"/><path class="cls-7" d="M61.86,47.43a1,1,0,1,0-.36,2l.19,0a1,1,0,0,0,.18-2Z"/><path class="cls-8" d="M59.73,45.13a1,1,0,0,0-1.25,1.11A1,1,0,0,0,58,46.1,1,1,0,0,0,57,47a.51.51,0,0,0,.2.46,1,1,0,0,0-.38.61,1,1,0,0,0,.81,1.18l.18,0a1,1,0,0,0,1-.83.48.48,0,0,0-.24-.53,1,1,0,0,0,.44-.76h0a1,1,0,0,0,0-.22,1,1,0,0,0,.28.13,1,1,0,0,0,.25,0,1,1,0,0,0,.25-2Z"/></svg>