<?xml version="1.0" encoding="UTF-8" standalone="no"?>
<svg width="53px" height="57px" viewBox="0 0 53 57" version="1.1" xmlns="http://www.w3.org/2000/svg" xmlns:xlink="http://www.w3.org/1999/xlink">
    <!-- Generator: sketchtool 3.8.3 (29802) - http://www.bohemiancoding.com/sketch -->
    <title>3EBB92C1-6695-4361-A365-7EE9E2621295</title>
    <desc>Created with sketchtool.</desc>
    <defs>
        <linearGradient x1="-657.356686%" y1="0%" x2="644.678622%" y2="0%" id="linearGradient-1">
            <stop stop-color="#FBDA61" offset="0%"></stop>
            <stop stop-color="#F76B1C" offset="100%"></stop>
        </linearGradient>
    </defs>
    <g id="Page-1" stroke="none" stroke-width="1" fill="none" fill-rule="evenodd">
        <g id="Company-Dashboard---My-Cleints-Copy-2" transform="translate(-1018.000000, -291.000000)" fill="url(#linearGradient-1)">
            <g id="Group-4" transform="translate(918.000000, 207.000000)">
                <g id="User-Permissions-Icon" transform="translate(100.100000, 84.500000)">
                    <g id="Group">
                        <path d="M38.8947059,27.7991926 C38.8947059,26.7310508 39.7718139,25.8652484 40.8537232,25.8652484 C41.9357132,25.8652484 42.8128212,26.7310508 42.8128212,27.7991926 C42.8128212,28.8672547 41.9357132,29.7331368 40.8537232,29.7331368 C39.7718139,29.7331368 38.8947059,28.8672547 38.8947059,27.7991926 L38.8947059,27.7991926 Z" id="Shape"></path>
                        <path d="M21.7035985,2.09275439 C9.7677903,3.09982766 0.454261364,12.8057435 0.454261364,24.8639152 C0.454261364,40.3967768 8.9842803,40.8233798 8.9842803,50.8988162 L10.4984848,50.3755878 L10.4984848,56.354886 L24.8581509,56.354886 L24.8581509,56.4794946 L35.9623176,56.4794946 L35.9623176,50.749254 L38.1831509,51.1728275 C41.9392665,51.9400911 45.3813967,49.6327197 46.4608024,46.190079 C46.126143,46.2843924 45.792372,46.3893889 45.4261364,46.3893889 C45.0672497,46.3893889 44.7844367,46.220693 44.4671402,46.1153776 C43.5140392,48.3756321 41.1474385,49.8324283 38.5617424,49.3043367 L34.0191288,48.4323158 L34.0191288,54.5610965 L26.8014205,54.5610965 L26.8014205,54.436488 L12.4416736,54.436488 L12.4416736,49.7029566 L12.6435676,49.6281755 C15.6203726,48.648607 18.1720697,46.4131467 19.3060676,43.4744412 L21.0221661,39.3388396 C17.0359721,37.9144113 14.1830492,34.1523166 14.1830492,29.7220552 C14.1830492,25.1671852 17.3303335,21.451729 21.7035985,20.2050852 L21.7035985,2.09275439 L21.7035985,2.09275439 Z M27.3566288,2.14258187 L27.3566288,20.2050852 C29.0329945,20.6829507 30.4389839,21.6097419 31.646875,22.7213334 L31.646875,21.5005998 C31.646875,21.5005998 38.7552376,17.6462644 40.9087191,10.9122193 C43.6892024,14.0615556 45.3472362,18.2802295 45.7541736,23.3690907 L45.7794508,23.5684006 L50.7511294,31.7650618 C51.2217845,32.5395005 50.9052148,33.4332063 50.1454476,33.7332076 L45.8299242,35.5269971 L45.501887,38.8654386 C46.2068198,38.8802673 46.83471,39.1187217 47.3946023,39.4633685 L47.6469697,36.8474653 L50.8772727,35.5269971 C52.7544826,34.7858033 53.4695102,32.5421314 52.3914773,30.7685121 L47.6721661,22.9455172 C47.146838,16.9584857 45.030182,11.9891308 41.3882576,8.4955464 C41.4445456,8.0203915 41.5648744,7.57361834 41.5649552,7.07550293 C38.1280742,4.2480921 32.5843897,2.66772371 27.3566288,2.14258187 L27.3566288,2.14258187 Z" id="Shape"></path>
                        <path d="M24.5301136,0.423533626 C23.5667565,0.423533626 22.9149621,1.06698584 22.9149621,2.0179733 L22.9149621,19.7815117 C23.4421476,19.6987582 23.979347,19.6320293 24.5301136,19.6320293 C25.0808803,19.6320293 25.6180797,19.6987582 26.1452652,19.7815117 L26.1452652,2.0179733 C26.1452652,1.06698584 25.4934708,0.423533626 24.5301136,0.423533626 L24.5301136,0.423533626 Z" id="Shape"></path>
                        <path d="M32.4797279,35.825962 C31.9510888,36.4981149 31.3691497,37.0734828 30.6878788,37.5947979 C32.3871797,39.7515706 36.1671995,42.8970801 43.0034091,43.5492223 C43.3819198,44.5126068 44.3165273,45.1935293 45.4261364,45.1935293 C46.8687089,45.1935293 48.0255612,44.051563 48.0255612,42.6274536 C48.0255612,41.2032645 46.8687089,40.0364244 45.4261364,40.0364244 C44.6190452,40.0364244 43.9368052,40.4403061 43.4576705,41.0080205 C37.1249036,40.4686878 33.7915539,37.5490363 32.4797279,35.825962 L32.4797279,35.825962 Z" id="Shape"></path>
                        <path d="M24.5301136,20.7033601 C19.4810692,20.7032803 15.3944129,24.7376324 15.3944129,29.7220552 C15.3944129,34.7065577 19.4810692,38.7657837 24.5301136,38.7657837 C29.579158,38.7657837 33.6658144,34.7065577 33.6658144,29.7220552 C33.6658144,24.7376324 29.579158,20.7033601 24.5301136,20.7033601 L24.5301136,20.7033601 Z M24.5301136,24.5649503 C27.4153395,24.5649503 29.7541597,26.8738364 29.7541597,29.7220552 C29.7541597,32.5703537 27.4153395,34.8792398 24.5301136,34.8792398 C21.6448877,34.8792398 19.3060676,32.5703537 19.3060676,29.7220552 C19.3060676,26.8738364 21.6448877,24.5649503 24.5301136,24.5649503 L24.5301136,24.5649503 Z" id="Shape"></path>
                    </g>
                </g>
            </g>
        </g>
    </g>
</svg>