<?xml version="1.0" encoding="UTF-8"?>
<svg width="73px" height="90px" viewBox="0 0 73 90" version="1.1" xmlns="http://www.w3.org/2000/svg" xmlns:xlink="http://www.w3.org/1999/xlink">
    <!-- Generator: Sketch 46.1 (44463) - http://www.bohemiancoding.com/sketch -->
    <title>world-view</title>
    <desc>Created with Sketch.</desc>
    <defs></defs>
    <g id="Page-1" stroke="none" stroke-width="1" fill="none" fill-rule="evenodd">
        <g id="New-Page-Icons" transform="translate(-497.000000, -57.000000)" fill-rule="nonzero" fill="#6240A3">
            <g id="world-view" transform="translate(497.000000, 57.000000)">
                <path d="M18.999383,1.2312383 C7.58412766,8.32636915 0,21.0164745 0,35.4300415 C0,56.9731787 17.000234,74.5794766 38.2978723,75.5829766 L38.2978723,78.5151574 L28.7234043,78.5151574 C27.742883,78.5256894 27.1655426,79.2851362 26.8683511,79.8914872 L24.9534574,86.5936149 C24.618734,87.7360404 25.618117,89.0577957 26.8085106,89.0470723 L53.6170213,89.0470723 C54.8074149,89.0576043 55.8067979,87.7360404 55.4720745,86.5936149 L53.5571809,79.8914872 C53.3247128,79.0983383 52.5285957,78.5076894 51.7021277,78.5151574 L42.1276596,78.5151574 L42.1276596,75.5829766 C47.1458298,75.340934 51.9389043,74.1726574 56.3098404,72.2618809 C57.2263085,71.854583 57.689617,70.6501149 57.2822234,69.7336468 C56.8749255,68.817083 55.6704574,68.3538702 54.7539894,68.7611681 C50.2938191,70.7110085 45.3930319,71.8130298 40.212766,71.8130298 C20.0963298,71.8130298 3.82978723,55.5464872 3.82978723,35.4300415 C3.82978723,22.3598872 10.7065532,10.9115809 21.0339574,4.49254149 C21.7699468,4.08497553 22.1708298,3.15270957 21.960383,2.33817128 C21.2354043,0.933644681 20.1213191,0.662562766 18.999383,1.2312383 L18.999383,1.2312383 Z M40.212766,2.87685 C22.2568085,2.87685 7.65957447,17.474084 7.65957447,35.4300415 C7.65957447,53.3860085 22.2568085,67.9832426 40.212766,67.9832426 C58.1688191,67.9832426 72.7659574,53.3860085 72.7659574,35.4300415 C72.7659574,22.1262032 64.7433191,10.6747468 53.2878511,5.62950957 C53.2754043,5.62376489 53.270617,5.60490319 53.2581702,5.59963723 L53.2284894,5.59963723 C49.238617,3.85245957 44.8409681,2.87685 40.212766,2.87685 Z M40.212766,6.70663723 C43.9244043,6.70663723 47.4608298,7.40473085 50.7148085,8.68137128 C52.7389468,12.1581191 52.604617,15.7058809 52.6595745,18.2259191 C52.7179787,20.8986128 51.5579362,22.4537074 50.0864362,24.8382862 C49.2914681,26.1265404 47.9117872,27.3317553 46.5259787,28.5483926 C45.1399787,29.7650298 43.547266,30.9653426 43.1149787,33.1261851 C42.6133723,35.6343319 42.2526064,38.4147191 41.499383,40.3369564 C41.1225319,41.2980798 40.6614255,42.0123638 40.1828936,42.4313713 C39.7041702,42.8503596 39.2230532,43.0914447 38.2978723,43.0896255 C37.607266,43.0886681 37.2331915,42.896317 36.7420213,42.4612915 C36.2508511,42.0262181 35.7132447,41.2866862 35.2160426,40.3070362 C34.0049681,37.9202745 33.8245851,35.9349702 33.8098404,33.7545096 C33.7954787,31.5740489 34.0212447,29.1797617 33.480766,26.4240574 C32.8978723,23.4532628 31.0963404,21.571133 29.8005319,20.1108926 C28.5047234,18.6506521 27.7659574,17.769217 27.7659574,16.2811053 C27.7659574,12.3149011 28.728,9.9648766 30.7878511,8.29240851 C33.741766,7.26857234 36.9065106,6.70663723 40.212766,6.70663723 Z M55.831117,11.31435 C63.7222979,16.4288777 68.9361702,25.308 68.9361702,35.4300415 C68.9361702,39.344917 68.1646596,43.0724872 66.7520426,46.4706574 C64.3869574,45.3927638 61.4404149,45.1813596 58.4940638,45.0045191 C58.4538511,45.0035617 58.4145957,45.0035617 58.374383,45.0045191 C53.5298936,45.0045191 49.9118936,46.6051787 48.4707447,49.5823596 C47.0402234,52.5377106 48.2864362,56.1147319 51.2532766,58.7977851 C51.2762553,58.8207638 51.290617,58.8351255 51.3135957,58.8571468 C52.1638085,59.6961574 52.950734,60.3236681 53.6772447,60.8019128 C49.6634362,62.9311787 45.0811915,64.1529766 40.2131489,64.1529766 C24.327,64.1529766 11.4897447,51.315817 11.4897447,35.4295628 C11.4897447,25.3371447 16.6825532,16.4952479 24.5349574,11.3737117 C24.1285213,12.8736383 23.9365532,14.5201883 23.9365532,16.2806266 C23.9365532,19.1693872 25.587766,21.1426085 26.9285745,22.6536319 C28.269383,24.1646553 29.3520638,25.3404574 29.7111064,27.171584 C30.1260638,29.285933 29.9640638,31.3555691 29.9804362,33.7839511 C29.9967128,36.212333 30.2672872,39.0106532 31.805617,42.0419298 C32.4189574,43.2507638 33.147383,44.4016149 34.199234,45.3332106 C35.2507979,46.2647106 36.6974043,46.9157745 38.2982553,46.918934 C40.0298936,46.918934 41.5998191,46.2895085 42.7264468,45.3032426 C43.8530745,44.3169766 44.545117,43.0568809 45.0602234,41.7427277 C46.0903404,39.11445 46.4294681,36.1527989 46.8854043,33.8737117 C46.9485957,33.5570936 47.7067021,32.5903117 49.0396596,31.4202543 C50.3725213,30.2501968 52.0798404,28.8491362 53.3182021,26.8424617 C54.6880213,24.6225638 56.5751489,22.0267245 56.4897447,18.1356798 C56.4571915,16.6544809 56.5270851,14.1363 55.8315,11.3138713 L55.831117,11.31435 Z M58.374383,48.8343064 C60.9936702,49.0009021 63.5346383,49.4505191 64.9867021,49.9712745 C63.0509362,53.2674766 60.4914894,56.1560936 57.4468085,58.4387426 L57.4468085,58.4090617 C57.4468085,58.4090617 57.4257447,58.4301255 56.8185319,58.1697 C56.2116064,57.909466 55.2217979,57.3467745 53.9461915,56.0752851 C53.9270426,56.0551787 53.9069362,56.0350723 53.8858723,56.0159234 C51.6597128,54.0297957 51.399,52.378583 51.9411064,51.2586574 C52.4832128,50.1387319 54.3748404,48.8350723 58.374,48.8350723 L58.374383,48.8343064 Z M30.1894468,82.3449447 L50.2360851,82.3449447 L51.0738511,85.2172851 L29.3516809,85.2172851 L30.1894468,82.3449447 Z" id="Shape"></path>
            </g>
        </g>
    </g>
</svg>